<svg width="92" height="92" viewBox="0 0 92 92" fill="none" xmlns="http://www.w3.org/2000/svg">
<g filter="url(#filter0_ddd)">
<circle cx="46" cy="45" r="28" fill="#2C98F0"/>
<path d="M40.3281 50.6719C41.9219 52.2344 43.8125 53.0156 46 53.0156C48.1875 53.0156 50.0625 52.2344 51.625 50.6719C53.2188 49.0781 54.0156 47.1875 54.0156 45C54.0156 42.8125 53.2188 40.9375 51.625 39.375C50.0625 37.7812 48.1875 36.9844 46 36.9844C43.8125 36.9844 41.9219 37.7812 40.3281 39.375C38.7656 40.9375 37.9844 42.8125 37.9844 45C37.9844 47.1875 38.7656 49.0781 40.3281 50.6719ZM38.9219 37.9688C40.8906 36 43.25 35.0156 46 35.0156C48.75 35.0156 51.0938 36 53.0312 37.9688C55 39.9062 55.9844 42.25 55.9844 45C55.9844 47.75 55 50.1094 53.0312 52.0781C51.0938 54.0156 48.75 54.9844 46 54.9844C43.25 54.9844 40.8906 54.0156 38.9219 52.0781C36.9844 50.1094 36.0156 47.75 36.0156 45C36.0156 42.25 36.9844 39.9062 38.9219 37.9688ZM46.9844 39.9844V44.0156H51.0156V45.9844H46.9844V50.0156H45.0156V45.9844H40.9844V44.0156H45.0156V39.9844H46.9844Z" fill="white"/>
</g>
<defs>
<filter id="filter0_ddd" x="0" y="0" width="92" height="92" filterUnits="userSpaceOnUse" color-interpolation-filters="sRGB">
<feFlood flood-opacity="0" result="BackgroundImageFix"/>
<feColorMatrix in="SourceAlpha" type="matrix" values="0 0 0 0 0 0 0 0 0 0 0 0 0 0 0 0 0 0 127 0"/>
<feOffset dy="3"/>
<feGaussianBlur stdDeviation="2.5"/>
<feColorMatrix type="matrix" values="0 0 0 0 0 0 0 0 0 0 0 0 0 0 0 0 0 0 0.2 0"/>
<feBlend mode="normal" in2="BackgroundImageFix" result="effect1_dropShadow"/>
<feColorMatrix in="SourceAlpha" type="matrix" values="0 0 0 0 0 0 0 0 0 0 0 0 0 0 0 0 0 0 127 0"/>
<feOffset dy="1"/>
<feGaussianBlur stdDeviation="9"/>
<feColorMatrix type="matrix" values="0 0 0 0 0 0 0 0 0 0 0 0 0 0 0 0 0 0 0.12 0"/>
<feBlend mode="normal" in2="effect1_dropShadow" result="effect2_dropShadow"/>
<feColorMatrix in="SourceAlpha" type="matrix" values="0 0 0 0 0 0 0 0 0 0 0 0 0 0 0 0 0 0 127 0"/>
<feOffset dy="6"/>
<feGaussianBlur stdDeviation="5"/>
<feColorMatrix type="matrix" values="0 0 0 0 0 0 0 0 0 0 0 0 0 0 0 0 0 0 0.14 0"/>
<feBlend mode="normal" in2="effect2_dropShadow" result="effect3_dropShadow"/>
<feBlend mode="normal" in="SourceGraphic" in2="effect3_dropShadow" result="shape"/>
</filter>
</defs>
</svg>
