<svg width="18" height="18" viewBox="0 0 18 18" fill="none" xmlns="http://www.w3.org/2000/svg">
<path fill-rule="evenodd" clip-rule="evenodd" d="M16.8311 11.965L11.5771 2.98334C11.0496 2.06892 10.0665 1.50137 9.00325 1.50012C7.93993 1.49888 6.95646 2.06409 6.42243 2.98337L1.16648 11.9683C0.621472 12.8847 0.609142 14.033 1.13704 14.9695C1.66538 15.9068 2.65465 16.4901 3.73071 16.4988L14.2591 16.4989C15.3463 16.4883 16.3337 15.9068 16.862 14.9704C17.3896 14.035 17.3778 12.8893 16.8311 11.965ZM2.45847 12.7305L7.71832 3.73889C7.98469 3.28037 8.47323 2.9996 9.0015 3.00021C9.52971 3.00083 10.0181 3.28276 10.28 3.73688L15.5382 12.7256C15.8138 13.1916 15.8197 13.7652 15.5555 14.2335C15.291 14.7024 14.7964 14.9937 14.2518 14.999L3.73681 14.9989C3.20385 14.9946 2.70833 14.7024 2.44374 14.233C2.17944 13.7642 2.18561 13.1893 2.45847 12.7305ZM9.00016 13.4989C9.41451 13.4989 9.7504 13.1632 9.7504 12.7489C9.7504 12.3347 9.41451 11.9989 9.00016 11.9989C8.58581 11.9989 8.24991 12.3347 8.24991 12.7489C8.24991 13.1632 8.58581 13.4989 9.00016 13.4989ZM9.75262 5.99912H8.25213V11.2491H9.75262V5.99912Z" fill="#EB665E"/>
</svg>
