<svg width="12" height="12" viewBox="0 0 12 12" fill="none" xmlns="http://www.w3.org/2000/svg">
<path fill-rule="evenodd" clip-rule="evenodd" d="M0.5 6.00012C0.5 9.03769 2.96243 11.5001 6 11.5001C9.03757 11.5001 11.5 9.03769 11.5 6.00012C11.5 2.96256 9.03757 0.500122 6 0.500122C2.96243 0.500122 0.5 2.96256 0.5 6.00012ZM6.00016 8.49927C6.2764 8.49927 6.50033 8.27541 6.50033 7.99927C6.50033 7.72312 6.2764 7.49927 6.00016 7.49927C5.72393 7.49927 5.5 7.72312 5.5 7.99927C5.5 8.27541 5.72393 8.49927 6.00016 8.49927ZM5.5 7.00004H6.5C6.5 6.60086 6.56271 6.5277 6.97361 6.32225C7.68771 5.9652 8 5.60086 8 4.75004C8 3.66035 7.14217 3.00004 6 3.00004C4.89543 3.00004 4 3.89547 4 5.00004H5C5 4.44776 5.44772 4.00004 6 4.00004C6.63858 4.00004 7 4.27824 7 4.75004C7 5.14922 6.93729 5.22238 6.52639 5.42783C5.81229 5.78488 5.5 6.14922 5.5 7.00004Z" fill="#46566D"/>
</svg>
