<svg width="18" height="18" viewBox="0 0 18 18" fill="none" xmlns="http://www.w3.org/2000/svg">
<path fill-rule="evenodd" clip-rule="evenodd" d="M3.16637 14.8336C2.47321 14.1405 2.27435 13.0831 2.49173 11.6958C1.35703 10.8685 0.75 9.98028 0.75 9C0.75 8.01972 1.35703 7.13146 2.49173 6.30419C2.27435 4.91686 2.47321 3.85953 3.16637 3.16637C3.85953 2.47321 4.91686 2.27435 6.30419 2.49173C7.13146 1.35703 8.01972 0.75 9 0.75C9.98028 0.75 10.8685 1.35703 11.6958 2.49173C13.0831 2.27435 14.1405 2.47321 14.8336 3.16637C15.5268 3.85953 15.7256 4.91686 15.5083 6.30419C16.643 7.13146 17.25 8.01972 17.25 9C17.25 9.98028 16.643 10.8685 15.5083 11.6958C15.7256 13.0831 15.5268 14.1405 14.8336 14.8336C14.1405 15.5268 13.0831 15.7256 11.6958 15.5083C10.8685 16.643 9.98028 17.25 9 17.25C8.01972 17.25 7.13146 16.643 6.30419 15.5083C4.91686 15.7256 3.85953 15.5268 3.16637 14.8336ZM6.48944 13.9485C6.79388 13.8833 7.10695 14.013 7.27613 14.2743C7.9367 15.295 8.52572 15.75 9 15.75C9.47427 15.75 10.0633 15.295 10.7239 14.2743C10.893 14.013 11.2061 13.8833 11.5106 13.9485C12.6993 14.2031 13.4376 14.1083 13.773 13.773C14.1083 13.4376 14.2031 12.6993 13.9485 11.5106C13.8833 11.2061 14.013 10.893 14.2743 10.7239C15.295 10.0633 15.75 9.47427 15.75 9C15.75 8.52572 15.295 7.9367 14.2743 7.27613C14.013 7.10695 13.8833 6.79388 13.9485 6.48944C14.2031 5.30066 14.1083 4.56239 13.773 4.22703C13.4376 3.89167 12.6993 3.79692 11.5106 4.05151C11.2061 4.11671 10.893 3.98703 10.7239 3.72565C10.0633 2.70504 9.47427 2.25 9 2.25C8.52572 2.25 7.9367 2.70504 7.27613 3.72565C7.10695 3.98703 6.79388 4.11671 6.48944 4.05151C5.30066 3.79692 4.56239 3.89167 4.22703 4.22703C3.89167 4.56239 3.79692 5.30066 4.05151 6.48944C4.11671 6.79388 3.98703 7.10695 3.72565 7.27613C2.70504 7.9367 2.25 8.52572 2.25 9C2.25 9.47427 2.70504 10.0633 3.72565 10.7239C3.98703 10.893 4.11671 11.2061 4.05151 11.5106C3.79692 12.6993 3.89167 13.4376 4.22703 13.773C4.56239 14.1083 5.30066 14.2031 6.48944 13.9485ZM11.4697 6.21965L8.25 9.43932L6.53033 7.71965L5.46967 8.78031L8.25 11.5606L12.5303 7.28031L11.4697 6.21965Z" fill="#5E6CEB"/>
</svg>
